<mxfile host="Electron" agent="Mozilla/5.0 (Macintosh; Intel Mac OS X 10_15_7) AppleWebKit/537.36 (KHTML, like Gecko) draw.io/27.0.2 Chrome/134.0.6998.205 Electron/35.3.0 Safari/537.36" version="27.0.2">
  <diagram name="Page-1" id="fvfxUdfP4-D3tVlwauSV">
    <mxGraphModel dx="1186" dy="916" grid="0" gridSize="10" guides="1" tooltips="1" connect="1" arrows="1" fold="1" page="1" pageScale="1" pageWidth="850" pageHeight="1100" math="0" shadow="0">
      <root>
        <mxCell id="0" />
        <mxCell id="1" parent="0" />
        <mxCell id="KYOfN7pk-3VjSk7jNMGH-1" value="medicine&amp;amp; pharmacy" style="shape=umlFrame;whiteSpace=wrap;html=1;pointerEvents=0;" vertex="1" parent="1">
          <mxGeometry x="156" y="44" width="546" height="948" as="geometry" />
        </mxCell>
        <mxCell id="KYOfN7pk-3VjSk7jNMGH-14" style="edgeStyle=none;shape=connector;rounded=0;orthogonalLoop=1;jettySize=auto;html=1;exitX=0;exitY=0.3333333333333333;exitDx=0;exitDy=0;exitPerimeter=0;entryX=1;entryY=0.5;entryDx=0;entryDy=0;strokeColor=default;align=center;verticalAlign=middle;fontFamily=Helvetica;fontSize=11;fontColor=default;labelBackgroundColor=default;startFill=0;endArrow=none;" edge="1" parent="1" source="KYOfN7pk-3VjSk7jNMGH-2" target="KYOfN7pk-3VjSk7jNMGH-8">
          <mxGeometry relative="1" as="geometry" />
        </mxCell>
        <mxCell id="KYOfN7pk-3VjSk7jNMGH-15" style="edgeStyle=none;shape=connector;rounded=0;orthogonalLoop=1;jettySize=auto;html=1;exitX=0;exitY=0.3333333333333333;exitDx=0;exitDy=0;exitPerimeter=0;entryX=1;entryY=0.5;entryDx=0;entryDy=0;strokeColor=default;align=center;verticalAlign=middle;fontFamily=Helvetica;fontSize=11;fontColor=default;labelBackgroundColor=default;startFill=0;endArrow=none;" edge="1" parent="1" source="KYOfN7pk-3VjSk7jNMGH-2" target="KYOfN7pk-3VjSk7jNMGH-9">
          <mxGeometry relative="1" as="geometry" />
        </mxCell>
        <mxCell id="KYOfN7pk-3VjSk7jNMGH-25" style="edgeStyle=none;shape=connector;rounded=0;orthogonalLoop=1;jettySize=auto;html=1;exitX=0;exitY=0.3333333333333333;exitDx=0;exitDy=0;exitPerimeter=0;entryX=1;entryY=0.5;entryDx=0;entryDy=0;strokeColor=default;align=center;verticalAlign=middle;fontFamily=Helvetica;fontSize=11;fontColor=default;labelBackgroundColor=default;startFill=0;endArrow=none;" edge="1" parent="1" source="KYOfN7pk-3VjSk7jNMGH-2" target="KYOfN7pk-3VjSk7jNMGH-24">
          <mxGeometry relative="1" as="geometry" />
        </mxCell>
        <mxCell id="KYOfN7pk-3VjSk7jNMGH-35" style="edgeStyle=none;shape=connector;rounded=0;orthogonalLoop=1;jettySize=auto;html=1;exitX=0;exitY=0.3333333333333333;exitDx=0;exitDy=0;exitPerimeter=0;entryX=1;entryY=0.5;entryDx=0;entryDy=0;strokeColor=default;align=center;verticalAlign=middle;fontFamily=Helvetica;fontSize=11;fontColor=default;labelBackgroundColor=default;startFill=0;endArrow=none;" edge="1" parent="1" source="KYOfN7pk-3VjSk7jNMGH-2" target="KYOfN7pk-3VjSk7jNMGH-34">
          <mxGeometry relative="1" as="geometry" />
        </mxCell>
        <mxCell id="KYOfN7pk-3VjSk7jNMGH-39" style="edgeStyle=none;shape=connector;rounded=0;orthogonalLoop=1;jettySize=auto;html=1;exitX=0;exitY=0.3333333333333333;exitDx=0;exitDy=0;exitPerimeter=0;entryX=1;entryY=0.5;entryDx=0;entryDy=0;strokeColor=default;align=center;verticalAlign=middle;fontFamily=Helvetica;fontSize=11;fontColor=default;labelBackgroundColor=default;startFill=0;endArrow=none;" edge="1" parent="1" source="KYOfN7pk-3VjSk7jNMGH-2" target="KYOfN7pk-3VjSk7jNMGH-18">
          <mxGeometry relative="1" as="geometry" />
        </mxCell>
        <mxCell id="KYOfN7pk-3VjSk7jNMGH-40" style="edgeStyle=orthogonalEdgeStyle;shape=connector;rounded=0;orthogonalLoop=1;jettySize=auto;html=1;exitX=0;exitY=0.3333333333333333;exitDx=0;exitDy=0;exitPerimeter=0;entryX=1;entryY=0.5;entryDx=0;entryDy=0;strokeColor=default;align=center;verticalAlign=middle;fontFamily=Helvetica;fontSize=11;fontColor=default;labelBackgroundColor=default;startFill=0;endArrow=none;" edge="1" parent="1" source="KYOfN7pk-3VjSk7jNMGH-2" target="KYOfN7pk-3VjSk7jNMGH-22">
          <mxGeometry relative="1" as="geometry">
            <Array as="points">
              <mxPoint x="770" y="513" />
              <mxPoint x="770" y="99" />
            </Array>
          </mxGeometry>
        </mxCell>
        <mxCell id="KYOfN7pk-3VjSk7jNMGH-2" value="pharmacy" style="shape=umlActor;verticalLabelPosition=bottom;verticalAlign=top;html=1;" vertex="1" parent="1">
          <mxGeometry x="773" y="493" width="30" height="60" as="geometry" />
        </mxCell>
        <mxCell id="KYOfN7pk-3VjSk7jNMGH-7" style="rounded=0;orthogonalLoop=1;jettySize=auto;html=1;exitX=1;exitY=0.3333333333333333;exitDx=0;exitDy=0;exitPerimeter=0;entryX=0;entryY=0.5;entryDx=0;entryDy=0;endArrow=none;startFill=0;" edge="1" parent="1" source="KYOfN7pk-3VjSk7jNMGH-3" target="KYOfN7pk-3VjSk7jNMGH-6">
          <mxGeometry relative="1" as="geometry" />
        </mxCell>
        <mxCell id="KYOfN7pk-3VjSk7jNMGH-28" style="edgeStyle=none;shape=connector;rounded=0;orthogonalLoop=1;jettySize=auto;html=1;exitX=1;exitY=0.3333333333333333;exitDx=0;exitDy=0;exitPerimeter=0;entryX=0;entryY=0.5;entryDx=0;entryDy=0;strokeColor=default;align=center;verticalAlign=middle;fontFamily=Helvetica;fontSize=11;fontColor=default;labelBackgroundColor=default;startFill=0;endArrow=none;" edge="1" parent="1" source="KYOfN7pk-3VjSk7jNMGH-3" target="KYOfN7pk-3VjSk7jNMGH-26">
          <mxGeometry relative="1" as="geometry" />
        </mxCell>
        <mxCell id="KYOfN7pk-3VjSk7jNMGH-30" style="edgeStyle=none;shape=connector;rounded=0;orthogonalLoop=1;jettySize=auto;html=1;exitX=1;exitY=0.3333333333333333;exitDx=0;exitDy=0;exitPerimeter=0;entryX=0;entryY=0.5;entryDx=0;entryDy=0;strokeColor=default;align=center;verticalAlign=middle;fontFamily=Helvetica;fontSize=11;fontColor=default;labelBackgroundColor=default;startFill=0;endArrow=none;" edge="1" parent="1" source="KYOfN7pk-3VjSk7jNMGH-3" target="KYOfN7pk-3VjSk7jNMGH-27">
          <mxGeometry relative="1" as="geometry" />
        </mxCell>
        <mxCell id="KYOfN7pk-3VjSk7jNMGH-32" style="edgeStyle=none;shape=connector;rounded=0;orthogonalLoop=1;jettySize=auto;html=1;exitX=1;exitY=0.3333333333333333;exitDx=0;exitDy=0;exitPerimeter=0;entryX=0;entryY=0.5;entryDx=0;entryDy=0;strokeColor=default;align=center;verticalAlign=middle;fontFamily=Helvetica;fontSize=11;fontColor=default;labelBackgroundColor=default;startFill=0;endArrow=none;" edge="1" parent="1" source="KYOfN7pk-3VjSk7jNMGH-3" target="KYOfN7pk-3VjSk7jNMGH-31">
          <mxGeometry relative="1" as="geometry" />
        </mxCell>
        <mxCell id="KYOfN7pk-3VjSk7jNMGH-36" style="edgeStyle=none;shape=connector;rounded=0;orthogonalLoop=1;jettySize=auto;html=1;exitX=1;exitY=0.3333333333333333;exitDx=0;exitDy=0;exitPerimeter=0;entryX=0;entryY=0.5;entryDx=0;entryDy=0;strokeColor=default;align=center;verticalAlign=middle;fontFamily=Helvetica;fontSize=11;fontColor=default;labelBackgroundColor=default;startFill=0;endArrow=none;" edge="1" parent="1" source="KYOfN7pk-3VjSk7jNMGH-3" target="KYOfN7pk-3VjSk7jNMGH-33">
          <mxGeometry relative="1" as="geometry" />
        </mxCell>
        <mxCell id="KYOfN7pk-3VjSk7jNMGH-41" style="edgeStyle=orthogonalEdgeStyle;shape=connector;rounded=0;orthogonalLoop=1;jettySize=auto;html=1;exitX=1;exitY=0.3333333333333333;exitDx=0;exitDy=0;exitPerimeter=0;entryX=0;entryY=0.5;entryDx=0;entryDy=0;strokeColor=default;align=center;verticalAlign=middle;fontFamily=Helvetica;fontSize=11;fontColor=default;labelBackgroundColor=default;startFill=0;endArrow=none;" edge="1" parent="1" source="KYOfN7pk-3VjSk7jNMGH-3" target="KYOfN7pk-3VjSk7jNMGH-22">
          <mxGeometry relative="1" as="geometry">
            <Array as="points">
              <mxPoint x="96" y="540" />
              <mxPoint x="96" y="99" />
            </Array>
          </mxGeometry>
        </mxCell>
        <mxCell id="KYOfN7pk-3VjSk7jNMGH-3" value="patient" style="shape=umlActor;verticalLabelPosition=bottom;verticalAlign=top;html=1;" vertex="1" parent="1">
          <mxGeometry x="62" y="520" width="30" height="60" as="geometry" />
        </mxCell>
        <mxCell id="KYOfN7pk-3VjSk7jNMGH-21" style="edgeStyle=none;shape=connector;rounded=0;orthogonalLoop=1;jettySize=auto;html=1;exitX=0;exitY=0.3333333333333333;exitDx=0;exitDy=0;exitPerimeter=0;entryX=1;entryY=0.5;entryDx=0;entryDy=0;strokeColor=default;align=center;verticalAlign=middle;fontFamily=Helvetica;fontSize=11;fontColor=default;labelBackgroundColor=default;startFill=0;endArrow=none;" edge="1" parent="1" source="KYOfN7pk-3VjSk7jNMGH-4" target="KYOfN7pk-3VjSk7jNMGH-20">
          <mxGeometry relative="1" as="geometry" />
        </mxCell>
        <mxCell id="KYOfN7pk-3VjSk7jNMGH-4" value="snap" style="shape=umlActor;verticalLabelPosition=bottom;verticalAlign=top;html=1;" vertex="1" parent="1">
          <mxGeometry x="760" y="839" width="30" height="60" as="geometry" />
        </mxCell>
        <mxCell id="KYOfN7pk-3VjSk7jNMGH-6" value="request send medicine" style="ellipse;whiteSpace=wrap;html=1;" vertex="1" parent="1">
          <mxGeometry x="191" y="260" width="140" height="70" as="geometry" />
        </mxCell>
        <mxCell id="KYOfN7pk-3VjSk7jNMGH-8" value="accept" style="ellipse;whiteSpace=wrap;html=1;" vertex="1" parent="1">
          <mxGeometry x="367" y="206" width="140" height="70" as="geometry" />
        </mxCell>
        <mxCell id="KYOfN7pk-3VjSk7jNMGH-9" value="reject" style="ellipse;whiteSpace=wrap;html=1;" vertex="1" parent="1">
          <mxGeometry x="367" y="292" width="140" height="70" as="geometry" />
        </mxCell>
        <mxCell id="KYOfN7pk-3VjSk7jNMGH-11" value="Extends" style="endArrow=block;endSize=16;endFill=0;html=1;rounded=0;exitX=0;exitY=0.5;exitDx=0;exitDy=0;entryX=1;entryY=0.5;entryDx=0;entryDy=0;" edge="1" parent="1" source="KYOfN7pk-3VjSk7jNMGH-8" target="KYOfN7pk-3VjSk7jNMGH-6">
          <mxGeometry width="160" relative="1" as="geometry">
            <mxPoint x="233" y="394" as="sourcePoint" />
            <mxPoint x="393" y="394" as="targetPoint" />
          </mxGeometry>
        </mxCell>
        <mxCell id="KYOfN7pk-3VjSk7jNMGH-12" value="Extends" style="endArrow=block;endSize=16;endFill=0;html=1;rounded=0;exitX=0;exitY=0.5;exitDx=0;exitDy=0;entryX=1;entryY=0.5;entryDx=0;entryDy=0;" edge="1" parent="1" source="KYOfN7pk-3VjSk7jNMGH-9" target="KYOfN7pk-3VjSk7jNMGH-6">
          <mxGeometry width="160" relative="1" as="geometry">
            <mxPoint x="377" y="251" as="sourcePoint" />
            <mxPoint x="341" y="305" as="targetPoint" />
          </mxGeometry>
        </mxCell>
        <mxCell id="KYOfN7pk-3VjSk7jNMGH-16" value="show status request" style="ellipse;whiteSpace=wrap;html=1;fontFamily=Helvetica;fontSize=11;fontColor=default;labelBackgroundColor=default;" vertex="1" parent="1">
          <mxGeometry x="367" y="375" width="140" height="70" as="geometry" />
        </mxCell>
        <mxCell id="KYOfN7pk-3VjSk7jNMGH-17" value="Extends" style="endArrow=block;endSize=16;endFill=0;html=1;rounded=0;exitX=1;exitY=1;exitDx=0;exitDy=0;entryX=0;entryY=0.5;entryDx=0;entryDy=0;" edge="1" parent="1" source="KYOfN7pk-3VjSk7jNMGH-6" target="KYOfN7pk-3VjSk7jNMGH-16">
          <mxGeometry width="160" relative="1" as="geometry">
            <mxPoint x="400" y="501" as="sourcePoint" />
            <mxPoint x="364" y="469" as="targetPoint" />
          </mxGeometry>
        </mxCell>
        <mxCell id="KYOfN7pk-3VjSk7jNMGH-18" value="send request delivery for snap" style="ellipse;whiteSpace=wrap;html=1;fontFamily=Helvetica;fontSize=11;fontColor=default;labelBackgroundColor=default;" vertex="1" parent="1">
          <mxGeometry x="556" y="140" width="140" height="70" as="geometry" />
        </mxCell>
        <mxCell id="KYOfN7pk-3VjSk7jNMGH-19" value="Include" style="endArrow=block;endSize=16;endFill=0;html=1;rounded=0;strokeColor=default;align=center;verticalAlign=middle;fontFamily=Helvetica;fontSize=11;fontColor=default;labelBackgroundColor=default;exitX=1;exitY=0.5;exitDx=0;exitDy=0;entryX=0;entryY=0.5;entryDx=0;entryDy=0;" edge="1" parent="1" source="KYOfN7pk-3VjSk7jNMGH-8" target="KYOfN7pk-3VjSk7jNMGH-18">
          <mxGeometry x="-0.0024" width="160" relative="1" as="geometry">
            <mxPoint x="317" y="625" as="sourcePoint" />
            <mxPoint x="519" y="177" as="targetPoint" />
            <mxPoint as="offset" />
          </mxGeometry>
        </mxCell>
        <mxCell id="KYOfN7pk-3VjSk7jNMGH-20" value="send information driver and other information such as cost ,..." style="ellipse;whiteSpace=wrap;html=1;fontFamily=Helvetica;fontSize=11;fontColor=default;labelBackgroundColor=default;" vertex="1" parent="1">
          <mxGeometry x="511" y="769" width="140" height="70" as="geometry" />
        </mxCell>
        <mxCell id="KYOfN7pk-3VjSk7jNMGH-22" value="show information driver" style="ellipse;whiteSpace=wrap;html=1;fontFamily=Helvetica;fontSize=11;fontColor=default;labelBackgroundColor=default;" vertex="1" parent="1">
          <mxGeometry x="359" y="64" width="140" height="70" as="geometry" />
        </mxCell>
        <mxCell id="KYOfN7pk-3VjSk7jNMGH-23" value="Include" style="endArrow=block;endSize=16;endFill=0;html=1;rounded=0;strokeColor=default;align=center;verticalAlign=middle;fontFamily=Helvetica;fontSize=11;fontColor=default;labelBackgroundColor=default;exitX=0;exitY=0.5;exitDx=0;exitDy=0;entryX=1;entryY=0.5;entryDx=0;entryDy=0;" edge="1" parent="1" source="KYOfN7pk-3VjSk7jNMGH-18" target="KYOfN7pk-3VjSk7jNMGH-22">
          <mxGeometry width="160" relative="1" as="geometry">
            <mxPoint x="517" y="251" as="sourcePoint" />
            <mxPoint x="566" y="185" as="targetPoint" />
          </mxGeometry>
        </mxCell>
        <mxCell id="KYOfN7pk-3VjSk7jNMGH-24" value="show prescription" style="ellipse;whiteSpace=wrap;html=1;fontFamily=Helvetica;fontSize=11;fontColor=default;labelBackgroundColor=default;" vertex="1" parent="1">
          <mxGeometry x="511" y="458" width="140" height="70" as="geometry" />
        </mxCell>
        <mxCell id="KYOfN7pk-3VjSk7jNMGH-26" value="show all pharmacy" style="ellipse;whiteSpace=wrap;html=1;" vertex="1" parent="1">
          <mxGeometry x="191" y="373" width="140" height="70" as="geometry" />
        </mxCell>
        <mxCell id="KYOfN7pk-3VjSk7jNMGH-27" value="search and filter pharmacy by city and province" style="ellipse;whiteSpace=wrap;html=1;" vertex="1" parent="1">
          <mxGeometry x="191" y="471" width="140" height="70" as="geometry" />
        </mxCell>
        <mxCell id="KYOfN7pk-3VjSk7jNMGH-31" value="send prescription for pharmacy" style="ellipse;whiteSpace=wrap;html=1;" vertex="1" parent="1">
          <mxGeometry x="191" y="566" width="140" height="70" as="geometry" />
        </mxCell>
        <mxCell id="KYOfN7pk-3VjSk7jNMGH-33" value="show and payment factor" style="ellipse;whiteSpace=wrap;html=1;" vertex="1" parent="1">
          <mxGeometry x="191" y="655" width="140" height="70" as="geometry" />
        </mxCell>
        <mxCell id="KYOfN7pk-3VjSk7jNMGH-34" value="create and send factor" style="ellipse;whiteSpace=wrap;html=1;" vertex="1" parent="1">
          <mxGeometry x="507" y="556" width="140" height="70" as="geometry" />
        </mxCell>
        <mxCell id="KYOfN7pk-3VjSk7jNMGH-37" value="show information payment" style="ellipse;whiteSpace=wrap;html=1;fontFamily=Helvetica;fontSize=11;fontColor=default;labelBackgroundColor=default;" vertex="1" parent="1">
          <mxGeometry x="355" y="570" width="140" height="70" as="geometry" />
        </mxCell>
        <mxCell id="KYOfN7pk-3VjSk7jNMGH-38" value="Include" style="endArrow=block;endSize=16;endFill=0;html=1;rounded=0;strokeColor=default;align=center;verticalAlign=middle;fontFamily=Helvetica;fontSize=11;fontColor=default;labelBackgroundColor=default;exitX=1;exitY=0.5;exitDx=0;exitDy=0;entryX=0;entryY=0.5;entryDx=0;entryDy=0;" edge="1" parent="1" source="KYOfN7pk-3VjSk7jNMGH-33" target="KYOfN7pk-3VjSk7jNMGH-37">
          <mxGeometry x="-0.0024" width="160" relative="1" as="geometry">
            <mxPoint x="371" y="670" as="sourcePoint" />
            <mxPoint x="420" y="604" as="targetPoint" />
            <mxPoint as="offset" />
          </mxGeometry>
        </mxCell>
      </root>
    </mxGraphModel>
  </diagram>
</mxfile>
